<?xml version="1.0" encoding="UTF-8" standalone="no"?>
<!DOCTYPE svg PUBLIC "-//W3C//DTD SVG 1.1//EN" "http://www.w3.org/Graphics/SVG/1.1/DTD/svg11.dtd">
<svg width="100%" height="100%" viewBox="0 0 128 128" version="1.1" xmlns="http://www.w3.org/2000/svg" xmlns:xlink="http://www.w3.org/1999/xlink" xml:space="preserve" xmlns:serif="http://www.serif.com/" style="fill-rule:evenodd;clip-rule:evenodd;stroke-linecap:round;stroke-linejoin:round;stroke-miterlimit:1.5;">
    <g id="LonelyCat" transform="matrix(0.591431,0,0,2.787637,-192.773194,-1162.171894)">
        <g transform="matrix(2.223919,0,0,0.471831,-0.532134,0.075435)">
            <path d="M160.196,920.811C154.761,945.982 167.647,972.435 183.346,972.94L208.701,972.94C223.542,972.349 236.7,946.037 229.984,923.142C229.785,922.463 232.105,892.991 227.184,891.318C222.264,889.646 201.179,910.777 201.179,910.777C197.578,909.458 193.709,909.753 189.718,910.777C189.718,910.777 170.243,889.741 165.323,891.413C160.402,893.085 160.196,920.811 160.196,920.811" style="fill:rgb(149,160,197);stroke:black;stroke-width:2.28px;"/>
        </g>
        <g id="Mouth">
            <g transform="matrix(2.223919,0,0,0.471831,-1284.742586,-111.777671)">
                <path d="M772.478,1183.244L772.478,1191.221" style="fill:none;stroke:black;stroke-width:0.89px;"/>
            </g>
            <g transform="matrix(2.223919,0,0,0.471831,-1506.629191,-111.777671)">
                <path d="M872.25,1191.221C865.428,1191.255 860.933,1194.06 858.307,1199.09" style="fill:none;stroke:black;stroke-width:0.89px;"/>
            </g>
            <g transform="matrix(-2.223919,0,0,0.471831,2372.998276,-111.777671)">
                <path d="M872.25,1191.221C865.428,1191.255 860.933,1194.06 858.307,1199.09" style="fill:none;stroke:black;stroke-width:0.89px;"/>
            </g>
        </g>
        <g id="Nose" transform="matrix(2.223919,0,0,0.471831,0,-0.612911)">
            <path d="M194.517,947.047L190.108,943.694C189.939,943.565 189.871,943.343 189.939,943.142C190.007,942.941 190.196,942.806 190.409,942.807L198.748,942.841C198.955,942.842 199.14,942.972 199.21,943.166C199.281,943.361 199.223,943.579 199.065,943.712L195.134,947.031C194.958,947.181 194.701,947.187 194.517,947.047Z" style="stroke:black;stroke-width:0.89px;"/>
        </g>
        <g id="Whiskers-Right" serif:id="Whiskers Right" transform="matrix(1,0,0,1,2.604152,1.434778)">
            <g transform="matrix(2.223919,0,0,0.471831,0,0)">
                <path d="M205.476,943.062C213.514,944.717 231.288,949.429 238.527,949.752" style="fill:none;stroke:black;stroke-width:0.89px;"/>
            </g>
            <g transform="matrix(2.223919,0,0,0.471831,0,0)">
                <path d="M205.476,939.549C212.917,938.289 238.527,938.558 238.527,938.558" style="fill:none;stroke:black;stroke-width:0.89px;"/>
            </g>
            <g transform="matrix(2.223919,0,0,0.471831,0,0)">
                <path d="M205.476,941.352C213.514,941.32 231.288,943.856 238.527,944.49" style="fill:none;stroke:black;stroke-width:0.89px;"/>
            </g>
        </g>
        <g id="Whiskers-Left" serif:id="Whiskers Left" transform="matrix(-1,0,0,1,865.707941,1.434778)">
            <g transform="matrix(2.223919,0,0,0.471831,0,0)">
                <path d="M205.476,943.062C213.514,944.717 231.288,949.429 238.527,949.752" style="fill:none;stroke:black;stroke-width:0.89px;"/>
            </g>
            <g transform="matrix(2.223919,0,0,0.471831,0,0)">
                <path d="M205.476,939.549C212.917,938.289 238.527,938.558 238.527,938.558" style="fill:none;stroke:black;stroke-width:0.89px;"/>
            </g>
            <g transform="matrix(2.223919,0,0,0.471831,0,0)">
                <path d="M205.476,941.352C213.514,941.32 231.288,943.856 238.527,944.49" style="fill:none;stroke:black;stroke-width:0.89px;"/>
            </g>
        </g>
        <g transform="matrix(2.113198,0.147022,-0.692969,0.44834,69.578321,-52.26581)">
            <path d="M502.611,928.162C502.511,929.27 502.161,931.412 501.244,932.733C498.752,936.322 494.862,936.292 492.455,932.798C491.619,931.585 491.072,929.679 490.825,928.379" style="fill:none;stroke:black;stroke-width:0.89px;"/>
        </g>
        <g transform="matrix(-2.113198,0.147022,0.692969,0.44834,799.995758,-52.26581)">
            <path d="M502.611,928.162C502.511,929.27 502.161,931.412 501.244,932.733C498.752,936.322 494.862,936.292 492.455,932.798C491.619,931.585 491.072,929.679 490.825,928.379" style="fill:none;stroke:black;stroke-width:0.89px;"/>
        </g>
    </g>
</svg>
