<?xml version="1.0" encoding="UTF-8" standalone="no"?>
<!DOCTYPE svg PUBLIC "-//W3C//DTD SVG 1.1//EN" "http://www.w3.org/Graphics/SVG/1.1/DTD/svg11.dtd">
<svg width="100%" height="100%" viewBox="0 0 128 128" version="1.1" xmlns="http://www.w3.org/2000/svg" xmlns:xlink="http://www.w3.org/1999/xlink" xml:space="preserve" xmlns:serif="http://www.serif.com/" style="fill-rule:evenodd;clip-rule:evenodd;stroke-linecap:round;stroke-linejoin:round;stroke-miterlimit:1.5;">
    <g id="OkayCat" transform="matrix(0.591431,0,0,2.787637,-192.773194,-1162.171894)">
        <g transform="matrix(2.223919,0,0,0.471831,-0.532134,0.075435)">
            <path d="M160.196,920.811C154.761,945.982 167.647,972.435 183.346,972.94L208.701,972.94C223.542,972.349 236.7,946.037 229.984,923.142C229.785,922.463 232.105,892.991 227.184,891.318C222.264,889.646 201.179,910.777 201.179,910.777C197.578,909.458 193.709,909.753 189.718,910.777C189.718,910.777 170.243,889.741 165.323,891.413C160.402,893.085 160.196,920.811 160.196,920.811" style="fill:rgb(15,238,63);stroke:black;stroke-width:2.28px;"/>
        </g>
        <g transform="matrix(0.857696,0,0,0.19576,231.63085,252.463338)">
            <ellipse cx="192.811" cy="948.508" rx="12.469" ry="11.466" style="stroke:black;stroke-width:1.9px;"/>
        </g>
        <g transform="matrix(0.857696,0,0,0.19576,306.934538,252.463338)">
            <ellipse cx="192.811" cy="948.508" rx="12.469" ry="11.466" style="stroke:black;stroke-width:1.9px;"/>
        </g>
        <g id="Mouth">
            <g transform="matrix(2.223919,0,0,0.471831,-1058.960766,0.190101)">
                <path d="M659.948,957.42L681.32,957.385" style="fill:none;stroke:black;stroke-width:0.89px;"/>
            </g>
            <g transform="matrix(2.223887,0.001195,0.005632,0.259881,-1063.13434,201.467374)">
                <path d="M670.5,939.833L670.426,959.823" style="fill:none;stroke:black;stroke-width:1.1px;"/>
            </g>
        </g>
        <g id="Nose" transform="matrix(2.223919,0,0,0.471831,0,-0.612911)">
            <path d="M194.517,947.047L190.108,943.694C189.939,943.565 189.871,943.343 189.939,943.142C190.007,942.941 190.196,942.806 190.409,942.807L198.748,942.841C198.955,942.842 199.14,942.972 199.21,943.166C199.281,943.361 199.223,943.579 199.065,943.712L195.134,947.031C194.958,947.181 194.701,947.187 194.517,947.047Z" style="stroke:black;stroke-width:0.89px;"/>
        </g>
        <g id="Whiskers-Right" serif:id="Whiskers Right" transform="matrix(1,0,0,1,2.604152,1.434778)">
            <g transform="matrix(2.223919,0,0,0.471831,0,0)">
                <path d="M205.476,943.062C213.514,944.717 231.288,949.429 238.527,949.752" style="fill:none;stroke:black;stroke-width:0.89px;"/>
            </g>
            <g transform="matrix(2.223919,0,0,0.471831,0,0)">
                <path d="M205.476,939.549C212.917,938.289 238.527,938.558 238.527,938.558" style="fill:none;stroke:black;stroke-width:0.89px;"/>
            </g>
            <g transform="matrix(2.223919,0,0,0.471831,0,0)">
                <path d="M205.476,941.352C213.514,941.32 231.288,943.856 238.527,944.49" style="fill:none;stroke:black;stroke-width:0.89px;"/>
            </g>
        </g>
        <g id="Whiskers-Left" serif:id="Whiskers Left" transform="matrix(-1,0,0,1,865.707941,1.434778)">
            <g transform="matrix(2.223919,0,0,0.471831,0,0)">
                <path d="M205.476,943.062C213.514,944.717 231.288,949.429 238.527,949.752" style="fill:none;stroke:black;stroke-width:0.89px;"/>
            </g>
            <g transform="matrix(2.223919,0,0,0.471831,0,0)">
                <path d="M205.476,939.549C212.917,938.289 238.527,938.558 238.527,938.558" style="fill:none;stroke:black;stroke-width:0.89px;"/>
            </g>
            <g transform="matrix(2.223919,0,0,0.471831,0,0)">
                <path d="M205.476,941.352C213.514,941.32 231.288,943.856 238.527,944.49" style="fill:none;stroke:black;stroke-width:0.89px;"/>
            </g>
        </g>
    </g>
</svg>
